<svg id="组_6" data-name="组 6" xmlns="http://www.w3.org/2000/svg" width="17" height="16" viewBox="0 0 17 16">
  <defs>
    <style>
      .cls-1 {
        fill: #e13234;
      }

      .cls-1, .cls-2 {
        fill-rule: evenodd;
      }

      .cls-2 {
        fill: #fc7172;
      }
    </style>
  </defs>
  <path id="形状_3" data-name="形状 3" class="cls-1" d="M172.025,365H156.972a0.972,0.972,0,0,0-.972.972v10.271a0.972,0.972,0,0,0,.972.972h15.055a0.973,0.973,0,0,0,.973-0.972V365.972a0.974,0.974,0,0,0-.975-0.972h0Zm-1.374,4.31-4.2,3.664a1.1,1.1,0,0,1-1.251.134l-2.745-1.523a0.17,0.17,0,0,0-.207.032l-2.662,2.806a0.665,0.665,0,0,1-.481.206,0.651,0.651,0,0,1-.46-0.187,0.664,0.664,0,0,1-.019-0.94l2.88-3.038a1.1,1.1,0,0,1,1.32-.2l2.768,1.538a0.169,0.169,0,0,0,.2-0.021l3.987-3.474a0.666,0.666,0,0,1,1.1.545,0.644,0.644,0,0,1-.227.457h0Zm0,0" transform="translate(-156 -365)"/>
  <path id="形状_3_拷贝" data-name="形状 3 拷贝" class="cls-2" d="M170.077,379.468H158.852a0.815,0.815,0,0,0,0,1.532h11.227a0.814,0.814,0,0,0,0-1.532h0Z" transform="translate(-156 -365)"/>
</svg>
